<?xml version="1.0" encoding="UTF-8" standalone="no"?>
<!-- Created with Inkscape (http://www.inkscape.org/) -->

<svg
   xmlns:dc="http://purl.org/dc/elements/1.1/"
   xmlns:cc="http://creativecommons.org/ns#"
   xmlns:rdf="http://www.w3.org/1999/02/22-rdf-syntax-ns#"
   xmlns:svg="http://www.w3.org/2000/svg"
   xmlns="http://www.w3.org/2000/svg"
   xmlns:sodipodi="http://sodipodi.sourceforge.net/DTD/sodipodi-0.dtd"
   xmlns:inkscape="http://www.inkscape.org/namespaces/inkscape"
   version="1.1"
   id="svg2"
   xml:space="preserve"
   width="1093.3333"
   height="480"
   viewBox="0 0 1093.3333 480"
   sodipodi:docname="banner.svg"
   inkscape:version="0.92.4 (5da689c313, 2019-01-14)"><metadata
     id="metadata8"><rdf:RDF><cc:Work
         rdf:about=""><dc:format>image/svg+xml</dc:format><dc:type
           rdf:resource="http://purl.org/dc/dcmitype/StillImage" /><dc:title></dc:title></cc:Work></rdf:RDF></metadata><defs
     id="defs6"><clipPath
       clipPathUnits="userSpaceOnUse"
       id="clipPath18"><path
         d="M 0,0 H 820 V 360 H 0 Z"
         id="path16"
         inkscape:connector-curvature="0" /></clipPath><linearGradient
       x1="0"
       y1="0"
       x2="1"
       y2="0"
       gradientUnits="userSpaceOnUse"
       gradientTransform="matrix(777.27045,-431.31244,-431.31244,-777.27045,21.162313,395.76859)"
       spreadMethod="pad"
       id="linearGradient28"><stop
         style="stop-opacity:1;stop-color:#2291d0"
         offset="0"
         id="stop24" /><stop
         style="stop-opacity:1;stop-color:#1f00c5"
         offset="1"
         id="stop26" /></linearGradient><clipPath
       clipPathUnits="userSpaceOnUse"
       id="clipPath38"><path
         d="M 0,0 H 820 V 360 H 0 Z"
         id="path36"
         inkscape:connector-curvature="0" /></clipPath><clipPath
       clipPathUnits="userSpaceOnUse"
       id="clipPath46"><path
         d="M -32768,32767 H 32767 V -32768 H -32768 Z"
         id="path44"
         inkscape:connector-curvature="0" /></clipPath><radialGradient
       fx="0"
       fy="0"
       cx="0"
       cy="0"
       r="1"
       gradientUnits="userSpaceOnUse"
       gradientTransform="matrix(-528.16119,-11.952482,-9.3149662,411.61359,925.99121,123.50847)"
       spreadMethod="pad"
       id="radialGradient52"><stop
         style="stop-opacity:0.50000763;stop-color:#ffffff"
         offset="0"
         id="stop48" /><stop
         style="stop-opacity:0;stop-color:#ffffff"
         offset="1"
         id="stop50" /></radialGradient><mask
       maskUnits="userSpaceOnUse"
       x="0"
       y="0"
       width="1"
       height="1"
       id="mask54"><g
         id="g64"><g
           clip-path="url(#clipPath46)"
           id="g62"><g
             id="g60"><g
               id="g58"><path
                 d="M -32768,32767 H 32767 V -32768 H -32768 Z"
                 style="fill:url(#radialGradient52);stroke:none"
                 id="path56"
                 inkscape:connector-curvature="0" /></g></g></g></g></mask><radialGradient
       fx="0"
       fy="0"
       cx="0"
       cy="0"
       r="1"
       gradientUnits="userSpaceOnUse"
       gradientTransform="matrix(-528.16119,-11.952482,-9.3149662,411.61359,925.99121,123.50847)"
       spreadMethod="pad"
       id="radialGradient74"><stop
         style="stop-opacity:1;stop-color:#ff91d0"
         offset="0"
         id="stop70" /><stop
         style="stop-opacity:1;stop-color:#1f00c5"
         offset="1"
         id="stop72" /></radialGradient><clipPath
       clipPathUnits="userSpaceOnUse"
       id="clipPath84"><path
         d="M 0,0 H 820 V 360 H 0 Z"
         id="path82"
         inkscape:connector-curvature="0" /></clipPath><clipPath
       clipPathUnits="userSpaceOnUse"
       id="clipPath92"><path
         d="M -32768,32767 H 32767 V -32768 H -32768 Z"
         id="path90"
         inkscape:connector-curvature="0" /></clipPath><radialGradient
       fx="0"
       fy="0"
       cx="0"
       cy="0"
       r="1"
       gradientUnits="userSpaceOnUse"
       gradientTransform="matrix(-611.79938,-219.63501,-171.16887,476.79559,807.70001,358.93491)"
       spreadMethod="pad"
       id="radialGradient98"><stop
         style="stop-opacity:0.50000763;stop-color:#ffffff"
         offset="0"
         id="stop94" /><stop
         style="stop-opacity:0;stop-color:#ffffff"
         offset="1"
         id="stop96" /></radialGradient><mask
       maskUnits="userSpaceOnUse"
       x="0"
       y="0"
       width="1"
       height="1"
       id="mask100"><g
         id="g110"><g
           clip-path="url(#clipPath92)"
           id="g108"><g
             id="g106"><g
               id="g104"><path
                 d="M -32768,32767 H 32767 V -32768 H -32768 Z"
                 style="fill:url(#radialGradient98);stroke:none"
                 id="path102"
                 inkscape:connector-curvature="0" /></g></g></g></g></mask><radialGradient
       fx="0"
       fy="0"
       cx="0"
       cy="0"
       r="1"
       gradientUnits="userSpaceOnUse"
       gradientTransform="matrix(-611.79938,-219.63501,-171.16887,476.79559,807.70001,358.93491)"
       spreadMethod="pad"
       id="radialGradient120"><stop
         style="stop-opacity:1;stop-color:#ff91d0"
         offset="0"
         id="stop116" /><stop
         style="stop-opacity:1;stop-color:#1f00c5"
         offset="1"
         id="stop118" /></radialGradient><clipPath
       clipPathUnits="userSpaceOnUse"
       id="clipPath130"><path
         d="M 0,360 H 820 V 0 H 0 Z"
         id="path128"
         inkscape:connector-curvature="0" /></clipPath><clipPath
       clipPathUnits="userSpaceOnUse"
       id="clipPath138"><path
         d="M 67.1307,360 H 748.687 V 25.0828 H 67.1307 Z"
         id="path136"
         inkscape:connector-curvature="0" /></clipPath><clipPath
       clipPathUnits="userSpaceOnUse"
       id="clipPath142"><path
         d="M 748.687,360 C 625.305,332.478 560.831,271.975 531.087,205.871 480.283,92.967 427.22,25.083 299.109,25.083 c -128.111,0 -231.978,80.936 -231.978,180.788 0,59.741 40.808,112.559 97.798,154.129 z"
         id="path140"
         inkscape:connector-curvature="0" /></clipPath><clipPath
       clipPathUnits="userSpaceOnUse"
       id="clipPath146"><path
         d="M -32768,32767 H 32767 V -32768 H -32768 Z"
         id="path144"
         inkscape:connector-curvature="0" /></clipPath><linearGradient
       x1="0"
       y1="0"
       x2="1"
       y2="0"
       gradientUnits="userSpaceOnUse"
       gradientTransform="matrix(-73.835182,214.87932,214.87932,73.835182,468.69913,94.039978)"
       spreadMethod="pad"
       id="linearGradient154"><stop
         style="stop-opacity:0.99131762;stop-color:#ffffff"
         offset="0"
         id="stop148" /><stop
         style="stop-opacity:0.99131762;stop-color:#ffffff"
         offset="0"
         id="stop150" /><stop
         style="stop-opacity:0.2;stop-color:#ffffff"
         offset="1"
         id="stop152" /></linearGradient><mask
       maskUnits="userSpaceOnUse"
       x="0"
       y="0"
       width="1"
       height="1"
       id="mask156"><g
         id="g166"><g
           clip-path="url(#clipPath146)"
           id="g164"><g
             id="g162"><g
               id="g160"><path
                 d="M -32768,32767 H 32767 V -32768 H -32768 Z"
                 style="fill:url(#linearGradient154);stroke:none"
                 id="path158"
                 inkscape:connector-curvature="0" /></g></g></g></g></mask><linearGradient
       x1="0"
       y1="0"
       x2="1"
       y2="0"
       gradientUnits="userSpaceOnUse"
       gradientTransform="matrix(-73.835182,214.87932,214.87932,73.835182,468.69913,94.039978)"
       spreadMethod="pad"
       id="linearGradient174"><stop
         style="stop-opacity:1;stop-color:#ffffff"
         offset="0"
         id="stop168" /><stop
         style="stop-opacity:1;stop-color:#ffffff"
         offset="0"
         id="stop170" /><stop
         style="stop-opacity:1;stop-color:#ffffff"
         offset="1"
         id="stop172" /></linearGradient><clipPath
       clipPathUnits="userSpaceOnUse"
       id="clipPath200"><path
         d="M 113.912,360 H 820 V 202.621 H 113.912 Z"
         id="path198"
         inkscape:connector-curvature="0" /></clipPath><clipPath
       clipPathUnits="userSpaceOnUse"
       id="clipPath204"><path
         d="M 820,360 V 248.293 c -17.397,8.713 -35.998,15.743 -56.006,19.545 -55.705,10.566 -113.734,-5.145 -166.022,-23.453 -52.289,-18.309 -104.947,-39.866 -162.224,-41.645 -46.152,-1.428 -91.28,10.246 -133.961,24.017 -24.176,7.807 -48.38,16.541 -67.937,30.1 -18.696,12.951 -32.253,29.663 -47.382,45.181 -21.019,21.536 -45.455,41.038 -72.556,57.962 z"
         id="path202"
         inkscape:connector-curvature="0" /></clipPath><clipPath
       clipPathUnits="userSpaceOnUse"
       id="clipPath208"><path
         d="M -32768,32767 H 32767 V -32768 H -32768 Z"
         id="path206"
         inkscape:connector-curvature="0" /></clipPath><linearGradient
       x1="0"
       y1="0"
       x2="1"
       y2="0"
       gradientUnits="userSpaceOnUse"
       gradientTransform="matrix(-78.962822,142.57176,142.57176,78.962822,559.67731,192.5862)"
       spreadMethod="pad"
       id="linearGradient216"><stop
         style="stop-opacity:0.99131762;stop-color:#ffffff"
         offset="0"
         id="stop210" /><stop
         style="stop-opacity:0.99131762;stop-color:#ffffff"
         offset="0"
         id="stop212" /><stop
         style="stop-opacity:0.2;stop-color:#ffffff"
         offset="1"
         id="stop214" /></linearGradient><mask
       maskUnits="userSpaceOnUse"
       x="0"
       y="0"
       width="1"
       height="1"
       id="mask218"><g
         id="g228"><g
           clip-path="url(#clipPath208)"
           id="g226"><g
             id="g224"><g
               id="g222"><path
                 d="M -32768,32767 H 32767 V -32768 H -32768 Z"
                 style="fill:url(#linearGradient216);stroke:none"
                 id="path220"
                 inkscape:connector-curvature="0" /></g></g></g></g></mask><linearGradient
       x1="0"
       y1="0"
       x2="1"
       y2="0"
       gradientUnits="userSpaceOnUse"
       gradientTransform="matrix(-78.962822,142.57176,142.57176,78.962822,559.67731,192.5862)"
       spreadMethod="pad"
       id="linearGradient236"><stop
         style="stop-opacity:1;stop-color:#ffffff"
         offset="0"
         id="stop230" /><stop
         style="stop-opacity:1;stop-color:#ffffff"
         offset="0"
         id="stop232" /><stop
         style="stop-opacity:1;stop-color:#ffffff"
         offset="1"
         id="stop234" /></linearGradient><clipPath
       clipPathUnits="userSpaceOnUse"
       id="clipPath262"><path
         d="m 304.937,290.957 c 2.329,0 2.333,3.619 0,3.619 v 0 c -2.328,0 -2.333,-3.619 0,-3.619"
         id="path260"
         inkscape:connector-curvature="0" /></clipPath><clipPath
       clipPathUnits="userSpaceOnUse"
       id="clipPath270"><path
         d="M -32768,32767 H 32767 V -32768 H -32768 Z"
         id="path268"
         inkscape:connector-curvature="0" /></clipPath><linearGradient
       x1="0"
       y1="0"
       x2="1"
       y2="0"
       gradientUnits="userSpaceOnUse"
       gradientTransform="matrix(0.7578872,3.5514944,3.5514944,-0.7578872,304.55838,290.99103)"
       spreadMethod="pad"
       id="linearGradient278"><stop
         style="stop-opacity:0.99131762;stop-color:#ffffff"
         offset="0"
         id="stop272" /><stop
         style="stop-opacity:0.99131762;stop-color:#ffffff"
         offset="0"
         id="stop274" /><stop
         style="stop-opacity:0.2;stop-color:#ffffff"
         offset="1"
         id="stop276" /></linearGradient><mask
       maskUnits="userSpaceOnUse"
       x="0"
       y="0"
       width="1"
       height="1"
       id="mask280"><g
         id="g290"><g
           clip-path="url(#clipPath270)"
           id="g288"><g
             id="g286"><g
               id="g284"><path
                 d="M -32768,32767 H 32767 V -32768 H -32768 Z"
                 style="fill:url(#linearGradient278);stroke:none"
                 id="path282"
                 inkscape:connector-curvature="0" /></g></g></g></g></mask><linearGradient
       x1="0"
       y1="0"
       x2="1"
       y2="0"
       gradientUnits="userSpaceOnUse"
       gradientTransform="matrix(0.7578872,3.5514944,3.5514944,-0.7578872,304.55838,290.99103)"
       spreadMethod="pad"
       id="linearGradient302"><stop
         style="stop-opacity:1;stop-color:#ffffff"
         offset="0"
         id="stop296" /><stop
         style="stop-opacity:1;stop-color:#ffffff"
         offset="0"
         id="stop298" /><stop
         style="stop-opacity:1;stop-color:#ffffff"
         offset="1"
         id="stop300" /></linearGradient><clipPath
       clipPathUnits="userSpaceOnUse"
       id="clipPath312"><path
         d="M 0,360 H 820 V 0 H 0 Z"
         id="path310"
         inkscape:connector-curvature="0" /></clipPath><clipPath
       clipPathUnits="userSpaceOnUse"
       id="clipPath320"><path
         d="M 0,360 H 213.511 V 0 H 0 Z"
         id="path318"
         inkscape:connector-curvature="0" /></clipPath><clipPath
       clipPathUnits="userSpaceOnUse"
       id="clipPath324"><path
         d="M 180.646,249.582 C 161.28,225.192 137.118,207.075 113.597,188.521 90.077,169.978 66.543,150.306 49.31,123.774 35.588,102.664 26.35,77.9 19.489,52.53 14.883,35.521 11.275,17.755 11.193,0 H 0 v 360 h 210.645 c 1.776,-6.625 2.651,-13.644 2.828,-20.599 0.875,-33.476 -13.475,-65.418 -32.827,-89.819"
         id="path322"
         inkscape:connector-curvature="0" /></clipPath><clipPath
       clipPathUnits="userSpaceOnUse"
       id="clipPath328"><path
         d="M -32768,32767 H 32767 V -32768 H -32768 Z"
         id="path326"
         inkscape:connector-curvature="0" /></clipPath><linearGradient
       x1="0"
       y1="0"
       x2="1"
       y2="0"
       gradientUnits="userSpaceOnUse"
       gradientTransform="matrix(-76.690391,104.07982,104.07982,76.690391,149.45924,120.09969)"
       spreadMethod="pad"
       id="linearGradient336"><stop
         style="stop-opacity:0.99131762;stop-color:#ffffff"
         offset="0"
         id="stop330" /><stop
         style="stop-opacity:0.99131762;stop-color:#ffffff"
         offset="0"
         id="stop332" /><stop
         style="stop-opacity:0.2;stop-color:#ffffff"
         offset="1"
         id="stop334" /></linearGradient><mask
       maskUnits="userSpaceOnUse"
       x="0"
       y="0"
       width="1"
       height="1"
       id="mask338"><g
         id="g348"><g
           clip-path="url(#clipPath328)"
           id="g346"><g
             id="g344"><g
               id="g342"><path
                 d="M -32768,32767 H 32767 V -32768 H -32768 Z"
                 style="fill:url(#linearGradient336);stroke:none"
                 id="path340"
                 inkscape:connector-curvature="0" /></g></g></g></g></mask><linearGradient
       x1="0"
       y1="0"
       x2="1"
       y2="0"
       gradientUnits="userSpaceOnUse"
       gradientTransform="matrix(-76.690391,104.07982,104.07982,76.690391,149.45924,120.09969)"
       spreadMethod="pad"
       id="linearGradient356"><stop
         style="stop-opacity:1;stop-color:#ffffff"
         offset="0"
         id="stop350" /><stop
         style="stop-opacity:1;stop-color:#ffffff"
         offset="0"
         id="stop352" /><stop
         style="stop-opacity:1;stop-color:#ffffff"
         offset="1"
         id="stop354" /></linearGradient><clipPath
       clipPathUnits="userSpaceOnUse"
       id="clipPath418"><path
         d="M 0,360 H 820 V 0 H 0 Z"
         id="path416"
         inkscape:connector-curvature="0" /></clipPath><clipPath
       clipPathUnits="userSpaceOnUse"
       id="clipPath434"><path
         d="m 60,292.684 h 8.7371 V 268.533 H 60 Z"
         id="path432"
         inkscape:connector-curvature="0" /></clipPath><clipPath
       clipPathUnits="userSpaceOnUse"
       id="clipPath454"><path
         d="m 78.5305,258.743 h 24.1475 v -8.731 H 78.5305 Z"
         id="path452"
         inkscape:connector-curvature="0" /></clipPath><clipPath
       clipPathUnits="userSpaceOnUse"
       id="clipPath470"><path
         d="m 101.265,281.478 h 8.738 v -24.151 h -8.738 z"
         id="path468"
         inkscape:connector-curvature="0" /></clipPath><clipPath
       clipPathUnits="userSpaceOnUse"
       id="clipPath490"><path
         d="m 67.324,300 h 24.1474 v -8.731 H 67.324 Z"
         id="path488"
         inkscape:connector-curvature="0" /></clipPath></defs><sodipodi:namedview
     pagecolor="#ffffff"
     bordercolor="#666666"
     borderopacity="1"
     objecttolerance="10"
     gridtolerance="10"
     guidetolerance="10"
     inkscape:pageopacity="0"
     inkscape:pageshadow="2"
     inkscape:window-width="1920"
     inkscape:window-height="1019"
     id="namedview4"
     showgrid="false"
     inkscape:zoom="0.33292685"
     inkscape:cx="552.67395"
     inkscape:cy="240"
     inkscape:window-x="0"
     inkscape:window-y="0"
     inkscape:window-maximized="1"
     inkscape:current-layer="g10" /><g
     id="g10"
     inkscape:groupmode="layer"
     inkscape:label="banner-facebook"
     transform="matrix(1.3333333,0,0,-1.3333333,0,480)"><g
       id="g12"><g
         id="g14"
         clip-path="url(#clipPath18)"><g
           id="g20"><g
             id="g22"><path
               d="M 0,0 H 820 V 360 H 0 Z"
               style="fill:url(#linearGradient28);stroke:none"
               id="path30"
               inkscape:connector-curvature="0" /></g></g></g></g><g
       id="g32"><g
         id="g34"
         clip-path="url(#clipPath38)"><g
           id="g40"><g
             id="g42" /><g
             id="g66"
             mask="url(#mask54)"><g
               id="g68"><path
                 d="M 0,0 H 820 V 360 H 0 Z"
                 style="fill:url(#radialGradient74);stroke:none"
                 id="path76"
                 inkscape:connector-curvature="0" /></g></g></g></g></g><g
       id="g78"><g
         id="g80"
         clip-path="url(#clipPath84)"><g
           id="g86"><g
             id="g88" /><g
             id="g112"
             mask="url(#mask100)"><g
               id="g114"><path
                 d="M 0,0 H 820 V 360 H 0 Z"
                 style="fill:url(#radialGradient120);stroke:none"
                 id="path122"
                 inkscape:connector-curvature="0" /></g></g></g></g></g><g
       id="g124"><g
         id="g126"
         clip-path="url(#clipPath130)"><g
           id="g132"><g
             id="g134" /><g
             id="g192"><g
               clip-path="url(#clipPath138)"
               id="g190"
               style="opacity:0.05000311"><g
                 id="g188"><g
                   clip-path="url(#clipPath142)"
                   id="g186"><g
                     id="g184"><g
                       id="g176" /><g
                       mask="url(#mask156)"
                       id="g182"><g
                         id="g180"><path
                           d="M 748.687,360 C 625.305,332.478 560.831,271.975 531.087,205.871 480.283,92.967 427.22,25.083 299.109,25.083 c -128.111,0 -231.978,80.936 -231.978,180.788 0,59.741 40.808,112.559 97.798,154.129 z"
                           style="fill:url(#linearGradient174);stroke:none"
                           id="path178"
                           inkscape:connector-curvature="0" /></g></g></g></g></g></g></g></g><g
           id="g194"><g
             id="g196" /><g
             id="g254"><g
               clip-path="url(#clipPath200)"
               id="g252"
               style="opacity:0.05000311"><g
                 id="g250"><g
                   clip-path="url(#clipPath204)"
                   id="g248"><g
                     id="g246"><g
                       id="g238" /><g
                       mask="url(#mask218)"
                       id="g244"><g
                         id="g242"><path
                           d="M 820,360 V 248.293 c -17.397,8.713 -35.998,15.743 -56.006,19.545 -55.705,10.566 -113.734,-5.145 -166.022,-23.453 -52.289,-18.309 -104.947,-39.866 -162.224,-41.645 -46.152,-1.428 -91.28,10.246 -133.961,24.017 -24.176,7.807 -48.38,16.541 -67.937,30.1 -18.696,12.951 -32.253,29.663 -47.382,45.181 -21.019,21.536 -45.455,41.038 -72.556,57.962 z"
                           style="fill:url(#linearGradient236);stroke:none"
                           id="path240"
                           inkscape:connector-curvature="0" /></g></g></g></g></g></g></g></g></g></g><g
       id="g256"><g
         id="g258"
         clip-path="url(#clipPath262)"><g
           id="g264"><g
             id="g266" /><g
             id="g292"
             mask="url(#mask280)"><g
               id="g294"><path
                 d="m 304.937,290.957 c 2.329,0 2.333,3.619 0,3.619 v 0 c -2.328,0 -2.333,-3.619 0,-3.619"
                 style="fill:url(#linearGradient302);stroke:none"
                 id="path304"
                 inkscape:connector-curvature="0" /></g></g></g></g></g><g
       id="g306"><g
         id="g308"
         clip-path="url(#clipPath312)"><g
           id="g314"><g
             id="g316" /><g
             id="g374"><g
               clip-path="url(#clipPath320)"
               id="g372"
               style="opacity:0.05000311"><g
                 id="g370"><g
                   clip-path="url(#clipPath324)"
                   id="g368"><g
                     id="g366"><g
                       id="g358" /><g
                       mask="url(#mask338)"
                       id="g364"><g
                         id="g362"><path
                           d="M 180.646,249.582 C 161.28,225.192 137.118,207.075 113.597,188.521 90.077,169.978 66.543,150.306 49.31,123.774 35.588,102.664 26.35,77.9 19.489,52.53 14.883,35.521 11.275,17.755 11.193,0 H 0 v 360 h 210.645 c 1.776,-6.625 2.651,-13.644 2.828,-20.599 0.875,-33.476 -13.475,-65.418 -32.827,-89.819"
                           style="fill:url(#linearGradient356);stroke:none"
                           id="path360"
                           inkscape:connector-curvature="0" /></g></g></g></g></g></g></g></g><g
           id="g376"
           transform="translate(149.3501,38.1729)"><path
             d="M 0,0 -14.142,14.143 0,28.285 14.142,14.143 Z"
             style="fill:none;stroke:#1f00c5;stroke-width:2;stroke-linecap:butt;stroke-linejoin:miter;stroke-miterlimit:10;stroke-dasharray:none;stroke-opacity:1"
             id="path378"
             inkscape:connector-curvature="0" /></g><g
           id="g380"
           transform="translate(713.3496,100.9805)"><path
             d="M 0,0 -7.334,7.335 0,14.67 7.335,7.335 Z"
             style="fill:none;stroke:#00ffcd;stroke-width:2;stroke-linecap:butt;stroke-linejoin:miter;stroke-miterlimit:10;stroke-dasharray:none;stroke-opacity:1"
             id="path382"
             inkscape:connector-curvature="0" /></g><path
           d="m 458.817,261.458 h -10 v 10 h 10 z"
           style="fill:none;stroke:#ff91d0;stroke-width:2;stroke-linecap:butt;stroke-linejoin:miter;stroke-miterlimit:10;stroke-dasharray:none;stroke-opacity:1"
           id="path384"
           inkscape:connector-curvature="0" /><path
           d="m 114,181 h -10 v 10 h 10 z"
           style="fill:none;stroke:#ffffff;stroke-width:2;stroke-linecap:butt;stroke-linejoin:miter;stroke-miterlimit:10;stroke-dasharray:none;stroke-opacity:1"
           id="path386"
           inkscape:connector-curvature="0" /><g
           id="g388"
           transform="translate(366.9595,307.6851)"><path
             d="m 0,0 c 0,-5.523 -4.477,-10 -10,-10 -5.523,0 -10,4.477 -10,10 0,5.523 4.477,10 10,10 C -4.477,10 0,5.523 0,0 Z"
             style="fill:none;stroke:#00ffcd;stroke-width:2;stroke-linecap:butt;stroke-linejoin:miter;stroke-miterlimit:10;stroke-dasharray:none;stroke-opacity:1"
             id="path390"
             inkscape:connector-curvature="0" /></g><g
           id="g392"
           transform="translate(561.3154,52.3154)"><path
             d="m 0,0 c 0,-5.522 -4.478,-10 -10,-10 -5.522,0 -10,4.478 -10,10 0,5.522 4.478,10 10,10 C -4.478,10 0,5.522 0,0 Z"
             style="fill:none;stroke:#ff91d0;stroke-width:2;stroke-linecap:butt;stroke-linejoin:miter;stroke-miterlimit:10;stroke-dasharray:none;stroke-opacity:1"
             id="path394"
             inkscape:connector-curvature="0" /></g><g
           id="g396"
           transform="translate(620.4111,285.8755)"><path
             d="M 0,0 -10,-17.32 H 10 Z"
             style="fill:none;stroke:#ffffff;stroke-width:2;stroke-linecap:butt;stroke-linejoin:miter;stroke-miterlimit:10;stroke-dasharray:none;stroke-opacity:1"
             id="path398"
             inkscape:connector-curvature="0" /></g><path
           d="M 282.128,144.238 H 232.24 v 4 h 49.888 z"
           style="fill:#ff91d0;fill-opacity:1;fill-rule:nonzero;stroke:none"
           id="path400"
           inkscape:connector-curvature="0" /><path
           d="m 332.016,144.238 h -49.887 v 4 h 49.887 z"
           style="fill:#00ffcd;fill-opacity:1;fill-rule:nonzero;stroke:none"
           id="path402"
           inkscape:connector-curvature="0" /><path
           d="m 381.903,144.238 h -49.887 v 4 h 49.887 z"
           style="fill:#1f00c5;fill-opacity:1;fill-rule:nonzero;stroke:none"
           id="path404"
           inkscape:connector-curvature="0" /><path
           d="m 432.241,144.238 h -49.888 v 4 h 49.888 z"
           style="fill:#ffffff;fill-opacity:1;fill-rule:nonzero;stroke:none"
           id="path406"
           inkscape:connector-curvature="0" /></g></g><text
       transform="matrix(1,0,0,-1,232.2412,175.8682)"
       style="font-variant:normal;font-weight:600;font-stretch:normal;font-size:46.55379868px;font-family:'Open Sans SemiBold';-inkscape-font-specification:OpenSans-SemiBold;writing-mode:lr-tb;fill:#ffffff;fill-opacity:1;fill-rule:nonzero;stroke:none"
       id="text410"><tspan
         x="0 23.04413 51.488503 80.491524 107.30651 119.4105 163.91592 190.73091 220.29259 238.58823 267.03259 287.09729 300.08578 329.64746"
         y="0"
         sodipodi:role="line"
         id="tspan408">code mentoring</tspan></text>
<g
       id="g412"><g
         id="g414"
         clip-path="url(#clipPath418)"><g
           id="g420"
           transform="translate(75.0908,268.0894)"><path
             d="m 0,0 c -1.902,0 -3.347,0.555 -4.336,1.666 -0.989,1.109 -1.483,2.702 -1.483,4.778 0,2.115 0.517,3.74 1.551,4.876 1.035,1.137 2.529,1.705 4.484,1.705 1.326,0 2.519,-0.246 3.58,-0.738 L 2.989,10.138 c -1.129,0.44 -2.061,0.66 -2.796,0.66 -2.174,0 -3.261,-1.444 -3.261,-4.331 0,-1.409 0.27,-2.468 0.812,-3.176 0.542,-0.709 1.336,-1.063 2.381,-1.063 1.189,0 2.315,0.295 3.376,0.886 V 0.785 C 3.023,0.504 2.514,0.303 1.972,0.182 1.43,0.061 0.773,0 0,0"
             style="fill:#ffffff;fill-opacity:1;fill-rule:nonzero;stroke:none"
             id="path422"
             inkscape:connector-curvature="0" /></g><g
           id="g424"
           transform="translate(92.1396,268.3169)"><path
             d="m 0,0 h -2.683 v 7.751 c 0,0.962 -0.181,1.681 -0.545,2.154 -0.364,0.473 -0.932,0.711 -1.705,0.711 -1.03,0 -1.786,-0.336 -2.267,-1.006 C -7.682,8.939 -7.922,7.823 -7.922,6.263 V 0 h -2.671 v 12.57 h 2.092 l 0.375,-1.648 h 0.136 c 0.348,0.599 0.854,1.061 1.517,1.387 0.663,0.326 1.392,0.489 2.188,0.489 1.932,0 3.213,-0.659 3.842,-1.978 h 0.181 c 0.372,0.621 0.894,1.106 1.569,1.455 0.674,0.349 1.447,0.523 2.318,0.523 1.501,0 2.594,-0.379 3.28,-1.137 C 7.59,10.903 7.933,9.748 7.933,8.195 V 0 H 5.262 V 7.751 C 5.262,8.713 5.079,9.432 4.711,9.905 4.343,10.378 3.773,10.616 3,10.616 1.962,10.616 1.203,10.292 0.722,9.644 0.24,8.996 0,8.001 0,6.66 Z"
             style="fill:#ffffff;fill-opacity:1;fill-rule:nonzero;stroke:none"
             id="path426"
             inkscape:connector-curvature="0" /></g><g
           id="g428"><g
             id="g430" /><g
             id="g442"><g
               clip-path="url(#clipPath434)"
               id="g440"
               style="opacity:0.19999701"><g
                 transform="translate(60.854,268.5332)"
                 id="g438"><path
                   d="m 0,0 c -1.138,4.221 -1.139,8.696 0,12.943 1.138,4.247 3.375,8.122 6.471,11.208 L 7.883,22.734 C 5.037,19.897 2.978,16.333 1.931,12.425 0.884,8.519 0.884,4.402 1.931,0.521 Z"
                   style="fill:#ffffff;fill-opacity:1;fill-rule:nonzero;stroke:none"
                   id="path436"
                   inkscape:connector-curvature="0" /></g></g></g></g><g
           id="g444"
           transform="translate(78.5308,250.8574)"><path
             d="m 0,0 c -8.595,2.303 -15.369,9.077 -17.677,17.677 l 1.932,0.519 C -13.622,10.283 -7.39,4.051 0.518,1.932 Z"
             style="fill:#ffffff;fill-opacity:1;fill-rule:nonzero;stroke:none"
             id="path446"
             inkscape:connector-curvature="0" /></g><g
           id="g448"><g
             id="g450" /><g
             id="g462"><g
               clip-path="url(#clipPath454)"
               id="g460"
               style="opacity:0.5"><g
                 transform="translate(84.9648,250.0117)"
                 id="g458"><path
                   d="m 0,0 c -2.149,0 -4.311,0.277 -6.434,0.846 l 0.517,1.931 C 1.99,0.66 10.503,2.94 16.299,8.731 L 17.713,7.316 C 12.97,2.577 6.551,0 0,0"
                   style="fill:#ffffff;fill-opacity:1;fill-rule:nonzero;stroke:none"
                   id="path456"
                   inkscape:connector-curvature="0" /></g></g></g></g><g
           id="g464"><g
             id="g466" /><g
             id="g478"><g
               clip-path="url(#clipPath470)"
               id="g476"
               style="opacity:0.19999701"><g
                 transform="translate(102.6772,257.3271)"
                 id="g474"><path
                   d="m 0,0 -1.412,1.417 c 2.847,2.837 4.906,6.402 5.953,10.309 1.046,3.906 1.046,8.023 0,11.904 l 1.93,0.521 C 7.61,19.93 7.61,15.455 6.472,11.208 5.334,6.961 3.096,3.085 0,0"
                   style="fill:#ffffff;fill-opacity:1;fill-rule:nonzero;stroke:none"
                   id="path472"
                   inkscape:connector-curvature="0" /></g></g></g></g><g
           id="g480"
           transform="translate(107.2173,280.958)"><path
             d="m 0,0 c -2.124,7.913 -8.355,14.145 -16.263,16.264 l 0.517,1.932 C -7.15,15.893 -0.376,9.119 1.932,0.519 Z"
             style="fill:#ffffff;fill-opacity:1;fill-rule:nonzero;stroke:none"
             id="path482"
             inkscape:connector-curvature="0" /></g><g
           id="g484"><g
             id="g486" /><g
             id="g498"><g
               clip-path="url(#clipPath490)"
               id="g496"
               style="opacity:0.5"><g
                 transform="translate(68.7383,291.2686)"
                 id="g494"><path
                   d="m 0,0 -1.414,1.415 c 6.3,6.294 15.553,8.774 24.147,6.47 L 22.216,5.954 C 14.308,8.071 5.795,5.791 0,0"
                   style="fill:#ffffff;fill-opacity:1;fill-rule:nonzero;stroke:none"
                   id="path492"
                   inkscape:connector-curvature="0" /></g></g></g></g></g></g></g></svg>